<?xml version="1.0" encoding="UTF-8" standalone="no"?>
<!-- Created with Inkscape (http://www.inkscape.org/) -->

<svg
   xmlns:dc="http://purl.org/dc/elements/1.1/"
   xmlns:cc="http://creativecommons.org/ns#"
   xmlns:rdf="http://www.w3.org/1999/02/22-rdf-syntax-ns#"
   xmlns:svg="http://www.w3.org/2000/svg"
   xmlns="http://www.w3.org/2000/svg"
   xmlns:sodipodi="http://sodipodi.sourceforge.net/DTD/sodipodi-0.dtd"
   xmlns:inkscape="http://www.inkscape.org/namespaces/inkscape"
   width="379.62396"
   height="313.80643"
   id="svg2"
   version="1.1"
   inkscape:version="0.92.4 5da689c313, 2019-01-14"
   sodipodi:docname="description.svg"
   inkscape:export-xdpi="90"
   inkscape:export-ydpi="90">
  <defs
     id="defs4" />
  <sodipodi:namedview
     id="base"
     pagecolor="#ffffff"
     bordercolor="#666666"
     borderopacity="1.0"
     inkscape:pageopacity="0.0"
     inkscape:pageshadow="2"
     inkscape:zoom="1.4"
     inkscape:cx="231.03458"
     inkscape:cy="33.030181"
     inkscape:document-units="px"
     inkscape:current-layer="layer1"
     showgrid="false"
     inkscape:window-width="1914"
     inkscape:window-height="1124"
     inkscape:window-x="0"
     inkscape:window-y="52"
     inkscape:window-maximized="0"
     fit-margin-top="0"
     fit-margin-left="0"
     fit-margin-right="0"
     fit-margin-bottom="0"
     inkscape:snap-global="false" />
  <metadata
     id="metadata7">
    <rdf:RDF>
      <cc:Work
         rdf:about="">
        <dc:format>image/svg+xml</dc:format>
        <dc:type
           rdf:resource="http://purl.org/dc/dcmitype/StillImage" />
        <dc:title></dc:title>
      </cc:Work>
    </rdf:RDF>
  </metadata>
  <g
     inkscape:label="Layer 1"
     inkscape:groupmode="layer"
     id="layer1"
     transform="translate(-47.520362,-59.544634)">
    <path
       style="fill:#666666;fill-opacity:1;stroke:#000000;stroke-width:1.85922098;stroke-miterlimit:4;stroke-dasharray:none"
       d="m 177.13161,138.86584 c -0.0419,-0.002 -0.0793,0.002 -0.12031,0.0126 -1.53852,0.38879 -2.08486,7.43191 -3.5334,8.07995 -1.23607,0.553 -5.60995,-4.38926 -6.64886,-3.52073 -1.21747,1.01783 1.34685,7.5958 0.32294,8.80817 -0.87372,1.03454 -6.96354,-1.52458 -7.52271,-0.29129 -0.65529,1.44527 4.51245,6.26478 4.11597,7.80134 -0.33834,1.31118 -6.93346,1.6477 -6.90216,3.00148 0.0366,1.58646 6.78265,3.68668 7.09212,5.2431 0.26408,1.32814 -5.52941,4.48657 -4.91382,5.69269 0.72139,1.41344 7.70839,0.3847 8.66252,1.65272 0.81418,1.08203 -3.03461,6.4435 -1.95667,7.2631 1.26322,0.96045 7.10707,-3.00175 8.51688,-2.27328 1.20303,0.62161 0.0663,7.11901 1.39309,7.38973 1.55485,0.31726 5.10059,-5.78798 6.68686,-5.74335 1.3536,0.0381 3.15137,6.39173 4.46423,6.05996 1.53853,-0.38878 2.08487,-7.4319 3.5334,-8.07995 1.23607,-0.55299 5.60996,4.38927 6.64886,3.52073 1.21748,-1.01782 -1.34685,-7.59579 -0.32294,-8.80815 0.87373,-1.03454 6.95721,1.52457 7.51638,0.29128 0.65528,-1.44528 -4.50612,-6.26478 -4.10963,-7.80133 0.33833,-1.31119 6.92713,-1.64772 6.89582,-3.00149 -0.0366,-1.58647 -6.77632,-3.68669 -7.08579,-5.2431 -0.26407,-1.32814 5.52941,-4.48658 4.91383,-5.6927 -0.7214,-1.41344 -7.7084,-0.3847 -8.66252,-1.65272 -0.81418,-1.08202 3.02827,-6.4435 1.95033,-7.26308 -1.26322,-0.96047 -7.10706,3.00173 -8.51688,2.27328 -1.20302,-0.62162 -0.0663,-7.11902 -1.39309,-7.38975 -1.55485,-0.31722 -5.1006,5.788 -6.68685,5.74338 -1.31131,-0.0369 -3.03744,-6.00171 -4.3376,-6.07263 z m 4.76818,11.71466 c 7.11432,0 12.8798,5.76548 12.8798,12.8798 0,7.11431 -5.76548,12.87979 -12.8798,12.87979 -7.1143,0 -12.88612,-5.76548 -12.88612,-12.87979 0,-7.11432 5.77182,-12.8798 12.88612,-12.8798 z"
       id="path2985"
       inkscape:connector-curvature="0" />
    <path
       style="fill:#ffffff;fill-opacity:1;stroke:#000000;stroke-width:1.85922098;stroke-miterlimit:4;stroke-dasharray:none"
       d="m 239.12598,240.92725 c -2.03389,0 -3.66745,1.37934 -3.66745,3.09671 v 1.9364 3.30769 22.52092 c 0,0.66786 0.63677,1.20554 1.42772,1.20554 h 37.53115 c 0.79095,0 1.42771,-0.53768 1.42771,-1.20554 v -25.82861 c 0,-0.66787 -0.63676,-1.20553 -1.42771,-1.20553 h -10.69897 v -0.73087 c 0,-1.71737 -1.63356,-3.09671 -3.66745,-3.09671 z"
       id="rect3761"
       inkscape:connector-curvature="0" />
    <path
       style="fill:none;stroke:#000000;stroke-width:9.29610538;stroke-linecap:round;stroke-linejoin:miter;stroke-miterlimit:4;stroke-dasharray:none;stroke-opacity:1"
       d="m 209.43358,183.78693 c 22.49547,8.501 30.24603,15.48941 34.2444,36.1453"
       id="path3767"
       inkscape:connector-curvature="0"
       sodipodi:nodetypes="cc" />
    <path
       style="fill:#000000;stroke:#000000;stroke-width:0.46480525px;stroke-linecap:round;stroke-linejoin:miter;stroke-opacity:1"
       d="m 252.90613,209.74012 -21.59325,6.88383 19.411,19.1923 z"
       id="path3769"
       inkscape:connector-curvature="0"
       sodipodi:nodetypes="cccc" />
    <text
       xml:space="preserve"
       style="font-style:normal;font-variant:normal;font-weight:normal;font-stretch:normal;line-height:0%;font-family:'Open Sans';-inkscape-font-specification:'Open Sans';letter-spacing:0px;word-spacing:0px;fill:#000000;fill-opacity:1;stroke:none"
       x="268.62201"
       y="188.07936"
       id="text3771"><tspan
         sodipodi:role="line"
         id="tspan3773"
         x="268.62201"
         y="188.07936"
         style="font-weight:bold;font-size:18.59221077px;line-height:1.25;-inkscape-font-specification:'Open Sans Bold'">Place executable</tspan><tspan
         sodipodi:role="line"
         x="268.62201"
         y="211.31963"
         style="font-weight:bold;font-size:18.59221077px;line-height:1.25;-inkscape-font-specification:'Open Sans Bold'"
         id="tspan844">in local directory</tspan></text>
    <g
       id="g3789"
       transform="matrix(0.37916608,0,0,0.37916608,-87.52056,59.024372)">
      <circle
         id="path3779"
         style="fill:#ffffff;fill-opacity:1;stroke:#000000;stroke-width:4.9034481;stroke-linecap:round;stroke-linejoin:round;stroke-miterlimit:4;stroke-dasharray:none"
         cx="422.74884"
         cy="67.968529"
         r="64.144684" />
      <path
         sodipodi:nodetypes="sssssssss"
         inkscape:connector-curvature="0"
         id="path3781"
         d="m 418.20315,130.09291 c -11.90257,-4.35735 -22.80379,-16.7014 -24.24366,-29.29443 -1.3685,-11.968788 6.44895,-25.199367 16.16244,-32.324877 6.87384,-5.042433 17.52584,-7.639791 25.25382,-4.04061 7.11928,3.315691 5.21458,16.465692 12.12183,20.203051 7.70549,4.169266 17.97032,-3.833776 26.26396,-1.010152 2.48952,0.847574 5.66564,2.450789 6.06092,5.050762 2.04956,13.481106 -10.87026,26.792166 -22.22336,34.345186 -11.10817,7.39007 -26.86726,11.65763 -39.39595,7.07107 z"
         style="fill:#4d4d4d;stroke:#000000;stroke-width:1.22586203px;stroke-linecap:butt;stroke-linejoin:miter;stroke-opacity:1" />
      <path
         style="fill:#4d4d4d;stroke:#000000;stroke-width:1.22586203px;stroke-linecap:butt;stroke-linejoin:miter;stroke-opacity:1"
         d="m 405.80045,25.243676 c -1.87237,-7.991301 1.87361,-9.657639 8.50326,-14.840376 6.30102,-4.9258288 14.88918,-8.1573352 22.48667,-5.3680383 5.37643,1.9738711 10.74377,6.8554333 11.52187,12.3130233 0.7168,5.027721 -7.4512,8.587374 -7.05146,13.647199 0.44594,5.644565 8.74349,8.426878 10.16892,13.920901 0.42788,1.649153 0.67721,3.93549 -0.65576,5.058787 -6.91154,5.824396 -19.19518,3.453859 -27.63458,-0.07715 -8.25733,-3.454832 -15.36805,-16.242673 -17.33892,-24.654346 z"
         id="path3783"
         inkscape:connector-curvature="0"
         sodipodi:nodetypes="sssssssss" />
      <path
         sodipodi:nodetypes="sssssssss"
         inkscape:connector-curvature="0"
         id="path3787"
         d="m 376.704,52.627578 c -1.29624,-6.513347 -14.1974,-12.000542 -9.6077,-16.224756 4.36218,-4.014819 11.54399,-4.319946 16.80372,-2.046516 3.72209,1.608812 7.43789,5.587552 7.97657,10.035785 0.49624,4.097867 -1.94416,7.356322 -1.66742,11.480355 0.30872,4.600629 2.83881,6.511223 3.82563,10.989151 0.29622,1.34415 0.46884,3.207639 -0.45398,4.123188 -4.78484,4.7472 -13.28879,2.815083 -19.13137,-0.06288 -5.71653,-2.815876 3.61898,-11.438353 2.25455,-18.294327 z"
         style="fill:#4d4d4d;stroke:#000000;stroke-width:1.22586203px;stroke-linecap:butt;stroke-linejoin:miter;stroke-opacity:1" />
      <circle
         style="fill:none;stroke:#000000;stroke-width:4.9034481;stroke-linecap:round;stroke-linejoin:round;stroke-miterlimit:4;stroke-dasharray:none"
         id="path3785"
         cx="422.74884"
         cy="67.968529"
         r="64.144684" />
    </g>
    <g
       id="g3814"
       transform="matrix(0.42244368,-0.19386923,0.19386923,0.42244368,-8.8485547,83.146239)"
       inkscape:transform-center-x="7.3040836"
       inkscape:transform-center-y="-9.2961068">
      <g
         transform="matrix(0,-1,-1,0,371.73841,438.88126)"
         id="g3810">
        <path
           sodipodi:nodetypes="cc"
           inkscape:connector-curvature="0"
           id="path3796"
           d="M 284.42478,201.08306 C 237.02855,199.17831 217.54687,179.66837 192.6568,156.97358"
           style="fill:none;stroke:#000000;stroke-width:20.00000191;stroke-linecap:round;stroke-linejoin:miter;stroke-miterlimit:4;stroke-dasharray:none;stroke-opacity:1" />
        <path
           sodipodi:nodetypes="cccc"
           inkscape:connector-curvature="0"
           id="path3798"
           d="m 180.62898,177.1429 37.69729,-30.92677 -54.0626,-22.9394 z"
           style="fill:#000000;stroke:#000000;stroke-width:1px;stroke-linecap:round;stroke-linejoin:miter;stroke-opacity:1" />
      </g>
    </g>
    <text
       id="text3800"
       y="124.68478"
       x="136.067"
       style="font-style:normal;font-variant:normal;font-weight:normal;font-stretch:normal;line-height:0%;font-family:'Open Sans';-inkscape-font-specification:'Open Sans';letter-spacing:0px;word-spacing:0px;fill:#000000;fill-opacity:1;stroke:none"
       xml:space="preserve"><tspan
         style="font-weight:bold;font-size:18.59221077px;line-height:1.25;-inkscape-font-specification:'Open Sans Bold'"
         y="124.68478"
         x="136.067"
         id="tspan3802"
         sodipodi:role="line">Fetch webserver</tspan></text>
    <text
       id="text3806"
       y="314.44952"
       x="264.83469"
       style="font-style:normal;font-variant:normal;font-weight:normal;font-stretch:normal;line-height:0%;font-family:'Open Sans';-inkscape-font-specification:'Open Sans';letter-spacing:0px;word-spacing:0px;fill:#000000;fill-opacity:1;stroke:none"
       xml:space="preserve"><tspan
         style="font-weight:bold;font-size:18.59221077px;line-height:1.25;-inkscape-font-specification:'Open Sans Bold'"
         y="314.44952"
         x="264.83469"
         id="tspan3808"
         sodipodi:role="line">Serve contents of</tspan><tspan
         style="font-weight:bold;font-size:18.59221077px;line-height:1.25;-inkscape-font-specification:'Open Sans Bold'"
         y="337.68979"
         x="264.83469"
         sodipodi:role="line"
         id="tspan846">directory to </tspan><tspan
         style="font-weight:bold;font-size:18.59221077px;line-height:1.25;-inkscape-font-specification:'Open Sans Bold'"
         y="360.93005"
         x="264.83469"
         sodipodi:role="line"
         id="tspan852">others via HTTP</tspan></text>
    <path
       sodipodi:nodetypes="cc"
       inkscape:connector-curvature="0"
       id="path3804"
       d="m 248.78214,290.82318 c -6.53577,27.44833 -12.95987,36.81794 -40.06321,46.16522"
       style="fill:none;stroke:#000000;stroke-width:9.29610538;stroke-linecap:round;stroke-linejoin:miter;stroke-miterlimit:4;stroke-dasharray:none;stroke-opacity:1" />
    <path
       sodipodi:nodetypes="cccc"
       inkscape:connector-curvature="0"
       id="path3828"
       d="m 211.48557,347.04233 -4.25932,-22.26013 -21.37041,16.98343 z"
       style="fill:#000000;stroke:#000000;stroke-width:0.46480525px;stroke-linecap:round;stroke-linejoin:miter;stroke-opacity:1" />
    <g
       id="g838"
       transform="translate(-70.205601,40.406102)">
      <path
         inkscape:connector-curvature="0"
         id="rect3830"
         d="m 198.7724,280.14819 c -1.04734,0.10573 -1.85183,0.99585 -1.85183,2.07199 v 27.51854 c 0,1.14789 0.9241,2.07198 2.07199,2.07198 h 35.22373 c 1.14788,0 2.07198,-0.92409 2.07198,-2.07198 v -27.51854 c 0,-1.14789 -0.9241,-2.07199 -2.07198,-2.07199 h -35.22373 c -0.0718,0 -0.15034,-0.007 -0.22016,0 z m 4.10512,3.98857 h 27.4538 c 1.04352,0 1.87774,0.84717 1.87774,1.89069 v 19.904 c 0,1.04353 -0.83422,1.89069 -1.87774,1.89069 h -27.4538 c -1.04352,0 -1.87774,-0.84716 -1.87774,-1.89069 v -19.904 c 0,-1.04352 0.83422,-1.89069 1.87774,-1.89069 z"
         style="fill:#666666;fill-opacity:1;stroke:#000000;stroke-width:1.65758765;stroke-miterlimit:4;stroke-dasharray:none" />
      <path
         inkscape:connector-curvature="0"
         id="rect3834"
         d="m 192.11616,314.95754 c -0.62222,0 -1.1137,0.49147 -1.1137,1.11369 v 14.93123 c 0,0.62222 0.49148,1.11369 1.1137,1.11369 h 47.42254 c 0.62222,0 1.11369,-0.49147 1.11369,-1.11369 v -14.93123 c 0,-0.62222 -0.49147,-1.11369 -1.11369,-1.11369 z m 24.87676,4.23461 c 0.0347,-0.007 0.0668,0 0.1036,0 h 19.0752 c 0.29465,0 0.53096,0.2363 0.53096,0.53095 v 5.62025 c 0,0.29465 -0.23631,0.53095 -0.53096,0.53095 h -19.0752 c -0.29466,0 -0.53095,-0.2363 -0.53095,-0.53095 v -5.62025 c 0,-0.25782 0.18455,-0.48151 0.42735,-0.53095 z"
         style="fill:#4d4d4d;fill-opacity:1;stroke:#000000;stroke-width:1.65758765;stroke-miterlimit:4;stroke-dasharray:none" />
    </g>
  </g>
</svg>
