<?xml version="1.0" encoding="UTF-8" standalone="no"?>
<!-- Created with Inkscape (http://www.inkscape.org/) -->

<svg
   xmlns:dc="http://purl.org/dc/elements/1.1/"
   xmlns:cc="http://creativecommons.org/ns#"
   xmlns:rdf="http://www.w3.org/1999/02/22-rdf-syntax-ns#"
   xmlns:svg="http://www.w3.org/2000/svg"
   xmlns="http://www.w3.org/2000/svg"
   xmlns:xlink="http://www.w3.org/1999/xlink"
   xmlns:sodipodi="http://sodipodi.sourceforge.net/DTD/sodipodi-0.dtd"
   xmlns:inkscape="http://www.inkscape.org/namespaces/inkscape"
   id="svg3873"
   sodipodi:docname="local-webserver.svg"
   viewBox="0 0 256 256"
   version="1.1"
   inkscape:version="0.48.5 r10040"
   width="100%"
   height="100%"
   inkscape:export-xdpi="90"
   inkscape:export-ydpi="90">
  <sodipodi:namedview
     id="base"
     bordercolor="#666666"
     inkscape:pageshadow="2"
     inkscape:window-y="48"
     pagecolor="#ffffff"
     inkscape:window-height="683"
     inkscape:grid-bbox="true"
     inkscape:window-maximized="0"
     inkscape:zoom="0.9722718"
     inkscape:window-x="0"
     showgrid="true"
     borderopacity="1.0"
     inkscape:current-layer="layer1"
     inkscape:cx="40.109288"
     inkscape:cy="127.16308"
     inkscape:window-width="1580"
     inkscape:pageopacity="0.0"
     inkscape:document-units="px"
     fit-margin-top="0"
     fit-margin-left="0"
     fit-margin-right="0"
     fit-margin-bottom="0" />
  <defs
     id="defs3875">
    <linearGradient
       id="linearGradient5107">
      <stop
         id="stop5109"
         offset="0"
         style="stop-color:#000000;stop-opacity:0;" />
      <stop
         id="stop5111"
         offset="1"
         style="stop-color:#26287f;stop-opacity:1;" />
    </linearGradient>
    <filter
       color-interpolation-filters="sRGB"
       inkscape:collect="always"
       id="filter4490">
      <feGaussianBlur
         inkscape:collect="always"
         stdDeviation="99.401688"
         id="feGaussianBlur4492" />
    </filter>
    <filter
       color-interpolation-filters="sRGB"
       inkscape:collect="always"
       id="filter3898">
      <feGaussianBlur
         inkscape:collect="always"
         stdDeviation="54.219103"
         id="feGaussianBlur3900" />
    </filter>
    <radialGradient
       r="43.272728"
       fy="190.54546"
       fx="-261.81818"
       cy="190.54546"
       cx="-261.81818"
       gradientUnits="userSpaceOnUse"
       id="radialGradient5147"
       xlink:href="#linearGradient5107"
       inkscape:collect="always" />
  </defs>
  <g
     transform="translate(0.00118701,191.99825)"
     inkscape:groupmode="layer"
     inkscape:label="Layer 1"
     id="layer1">
    <g
       transform="matrix(1.0678111,0,0,1.0678111,-16.623571,-3.2800027)"
       id="g5131"
       style="stroke:#4d4d4d">
      <path
         inkscape:connector-curvature="0"
         style="fill:none;stroke:#4d4d4d;stroke-width:12;stroke-linecap:round;stroke-linejoin:round;stroke-miterlimit:4;stroke-dasharray:none"
         sodipodi:nodetypes="ccccccccccccc"
         d="m 149.53565,-152.93635 c 9.83448,15.64979 27.65368,22.35152 40.76232,27.80751 9.79269,16.97809 12.9615,29.678919 25.1902,38.731875 -0.38142,16.739124 5.09105,33.89474 8.24406,50.152819 -21.91032,7.498094 -21.98589,24.747436 -23.81619,41.2146923 -12.42563,9.8344217 -21.0195,25.1701357 -40.30431,30.2903157 -17.17056,-5.568825 -32.99687,0.493137 -49.00639,4.965626 C 97.140607,25.99066 80.862587,19.37893 62.514963,18.377735 59.031273,-1.1837259 51.646537,-16.515716 39.614783,-26.809458 c 7.218137,-17.185409 4.410918,-33.284588 -0.458004,-49.159693 12.850436,-12.128541 19.201229,-26.606439 21.068166,-42.704379 7.852472,-12.00564 25.244013,-17.84956 39.846315,-31.78 16.64099,4.48743 32.8234,2.29703 49.46439,-2.48282 z"
         id="path4906" />
      <path
         inkscape:connector-curvature="0"
         style="fill:none;stroke:#4d4d4d;stroke-width:12;stroke-linecap:round;stroke-linejoin:round;stroke-miterlimit:4;stroke-dasharray:none"
         sodipodi:nodetypes="ccccccccccccc"
         d="m 143.98235,-123.31018 c 6.81853,10.84989 19.17032,15.49399 28.25711,19.2778 6.78818,11.767908 8.98488,20.571962 17.46196,26.849134 -4.03965,10.818236 1.29661,23.030571 5.71479,34.765586 -15.18797,5.19963 -15.24064,17.156236 -16.50931,28.569727 -10.74476,4.2835966 -20.56436,10.3198111 -27.93879,20.9977682 -11.90409,-3.8614567 -22.8727,0.341542 -33.97184,3.4422338 C 107.66272,0.72350878 96.378661,-3.8610051 83.658756,-4.5530891 81.244906,-18.114213 76.12517,-28.741893 67.785496,-35.876876 c 5.002373,-11.913157 3.057404,-23.0734 -0.317745,-34.077226 8.907025,-8.408046 13.310729,-18.443575 14.603445,-29.602578 10.097261,-5.09448 20.019914,-10.6252 27.622774,-22.03186 11.53539,3.11152 22.75361,1.59372 34.28729,-1.72084 z"
         id="path4910" />
      <path
         d="m 137.76091,-89.30312 c 3.3697,5.362392 9.47286,7.655969 13.96184,9.526295 3.35417,5.813521 4.44026,10.163479 8.62869,13.26625 -1.99646,5.345135 0.6403,11.379155 2.8238,17.178075 -7.50417,2.569129 -7.52994,8.4769 -8.15761,14.115825 -5.30944,2.116745 -10.1598,5.099276 -13.80396,10.375872 -5.88258,-1.907984 -11.30171,0.168756 -16.78629,1.70139 -4.61103,-4.876753 -10.18752,-7.142452 -16.47183,-7.484099 -1.19286,-6.701385 -3.72296,-11.951363 -7.84313,-15.477525 2.47138,-5.885831 1.51062,-11.400114 -0.157017,-16.837824 4.400947,-4.154191 6.576877,-9.112686 7.215497,-14.626548 4.99019,-2.51757 9.89172,-5.250608 13.64994,-10.886598 5.69892,1.537202 11.24241,0.788235 16.94096,-0.850694 z"
         inkscape:connector-curvature="0"
         style="fill:none;stroke:#4d4d4d;stroke-width:13.50722694;stroke-linecap:round;stroke-linejoin:round;stroke-miterlimit:4;stroke-dasharray:none"
         sodipodi:nodetypes="ccccccccccccc"
         id="path4916" />
      <path
         inkscape:connector-curvature="0"
         style="fill:none;stroke:#4d4d4d;stroke-width:12;stroke-linecap:round;stroke-linejoin:round;stroke-miterlimit:4;stroke-dasharray:none"
         d="M 134.42153,-59.086024 207.2441,-142.01197"
         id="path4926" />
      <path
         d="M 134.42153,-59.086024 207.2441,-142.01197"
         inkscape:connector-curvature="0"
         style="fill:none;stroke:#4d4d4d;stroke-width:12;stroke-linecap:round;stroke-linejoin:round;stroke-miterlimit:4;stroke-dasharray:none"
         id="path4928" />
      <path
         inkscape:connector-curvature="0"
         style="fill:none;stroke:#4d4d4d;stroke-width:12;stroke-linecap:round;stroke-linejoin:round;stroke-miterlimit:4;stroke-dasharray:none"
         d="M 128.46748,-60.079149 95.033218,-170.31604"
         id="path4932" />
      <path
         inkscape:connector-curvature="0"
         style="fill:none;stroke:#4d4d4d;stroke-width:12;stroke-linecap:round;stroke-linejoin:round;stroke-miterlimit:4;stroke-dasharray:none"
         d="M 125.73091,-54.604547 17.61916,-80.456835"
         id="path4936" />
      <path
         inkscape:connector-curvature="0"
         style="fill:none;stroke:#4d4d4d;stroke-width:12;stroke-linecap:round;stroke-linejoin:round;stroke-miterlimit:4;stroke-dasharray:none"
         d="M 127.54002,-50.141691 49.238583,32.269073"
         id="path4940" />
      <path
         inkscape:connector-curvature="0"
         style="fill:none;stroke:#4d4d4d;stroke-width:12;stroke-linecap:round;stroke-linejoin:round;stroke-miterlimit:4;stroke-dasharray:none"
         d="M 132.58951,-53.623836 165.56577,53.633677"
         id="path4944" />
      <path
         inkscape:connector-curvature="0"
         style="fill:none;stroke:#4d4d4d;stroke-width:12;stroke-linecap:round;stroke-linejoin:round;stroke-miterlimit:4;stroke-dasharray:none"
         d="m 135.79554,-54.616961 110.17138,24.275065"
         id="path4946"
         sodipodi:nodetypes="cc" />
    </g>
    <g
       id="g5213"
       transform="matrix(1.0678111,0,0,1.0678111,-11.995235,0.31981366)">
      <path
         id="path5215"
         d="m 149.53565,-152.93635 c 9.83448,15.64979 27.65368,22.35152 40.76232,27.80751 9.79269,16.97809 12.9615,29.678919 25.1902,38.731875 -0.38142,16.739124 5.09105,33.89474 8.24406,50.152819 -21.91032,7.498094 -21.98589,24.747436 -23.81619,41.2146923 -12.42563,9.8344217 -21.0195,25.1701357 -40.30431,30.2903157 -17.17056,-5.568825 -32.99687,0.493137 -49.00639,4.965626 C 97.140607,25.99066 80.862587,19.37893 62.514963,18.377735 59.031273,-1.1837259 51.646537,-16.515716 39.614783,-26.809458 c 7.218137,-17.185409 4.410918,-33.284588 -0.458004,-49.159693 12.850436,-12.128541 19.201229,-26.606439 21.068166,-42.704379 7.852472,-12.00564 25.244013,-17.84956 39.846315,-31.78 16.64099,4.48743 32.8234,2.29703 49.46439,-2.48282 z"
         sodipodi:nodetypes="ccccccccccccc"
         style="fill:none;stroke:#000000;stroke-width:12;stroke-linecap:round;stroke-linejoin:round;stroke-miterlimit:4;stroke-dasharray:none"
         inkscape:connector-curvature="0" />
      <path
         id="path5217"
         d="m 143.98235,-123.31018 c 6.81853,10.84989 19.17032,15.49399 28.25711,19.2778 6.78818,11.767908 8.98488,20.571962 17.46196,26.849134 -4.03965,10.818236 1.29661,23.030571 5.71479,34.765586 -15.18797,5.19963 -15.24064,17.156236 -16.50931,28.569727 -10.74476,4.2835966 -20.56436,10.3198111 -27.93879,20.9977682 -11.90409,-3.8614567 -22.8727,0.341542 -33.97184,3.4422338 C 107.66272,0.72350878 96.378661,-3.8610051 83.658756,-4.5530891 81.244906,-18.114213 76.12517,-28.741893 67.785496,-35.876876 c 5.002373,-11.913157 3.057404,-23.0734 -0.317745,-34.077226 8.907025,-8.408046 13.310729,-18.443575 14.603445,-29.602578 10.097261,-5.09448 20.019914,-10.6252 27.622774,-22.03186 11.53539,3.11152 22.75361,1.59372 34.28729,-1.72084 z"
         sodipodi:nodetypes="ccccccccccccc"
         style="fill:none;stroke:#000000;stroke-width:12;stroke-linecap:round;stroke-linejoin:round;stroke-miterlimit:4;stroke-dasharray:none"
         inkscape:connector-curvature="0" />
      <path
         id="path5219"
         sodipodi:nodetypes="ccccccccccccc"
         style="fill:none;stroke:#000000;stroke-width:13.50722694;stroke-linecap:round;stroke-linejoin:round;stroke-miterlimit:4;stroke-dasharray:none"
         inkscape:connector-curvature="0"
         d="m 137.76091,-89.30312 c 3.3697,5.362392 9.47286,7.655969 13.96184,9.526295 3.35417,5.813521 4.44026,10.163479 8.62869,13.26625 -1.99646,5.345135 0.6403,11.379155 2.8238,17.178075 -7.50417,2.569129 -7.52994,8.4769 -8.15761,14.115825 -5.30944,2.116745 -10.1598,5.099276 -13.80396,10.375872 -5.88258,-1.907984 -11.30171,0.168756 -16.78629,1.70139 -4.61103,-4.876753 -10.18752,-7.142452 -16.47183,-7.484099 -1.19286,-6.701385 -3.72296,-11.951363 -7.84313,-15.477525 2.47138,-5.885831 1.51062,-11.400114 -0.157017,-16.837824 4.400947,-4.154191 6.576877,-9.112686 7.215497,-14.626548 4.99019,-2.51757 9.89172,-5.250608 13.64994,-10.886598 5.69892,1.537202 11.24241,0.788235 16.94096,-0.850694 z" />
      <path
         id="path5221"
         d="M 134.42153,-59.086024 207.2441,-142.01197"
         style="fill:none;stroke:#000000;stroke-width:12;stroke-linecap:round;stroke-linejoin:round;stroke-miterlimit:4;stroke-dasharray:none"
         inkscape:connector-curvature="0" />
      <path
         id="path5223"
         style="fill:none;stroke:#000000;stroke-width:12;stroke-linecap:round;stroke-linejoin:round;stroke-miterlimit:4;stroke-dasharray:none"
         inkscape:connector-curvature="0"
         d="M 134.42153,-59.086024 207.2441,-142.01197" />
      <path
         id="path5225"
         d="M 128.46748,-60.079149 95.033218,-170.31604"
         style="fill:none;stroke:#000000;stroke-width:12;stroke-linecap:round;stroke-linejoin:round;stroke-miterlimit:4;stroke-dasharray:none"
         inkscape:connector-curvature="0" />
      <path
         id="path5227"
         d="M 125.73091,-54.604547 17.61916,-80.456835"
         style="fill:none;stroke:#000000;stroke-width:12;stroke-linecap:round;stroke-linejoin:round;stroke-miterlimit:4;stroke-dasharray:none"
         inkscape:connector-curvature="0" />
      <path
         id="path5229"
         d="M 127.54002,-50.141691 49.238583,32.269073"
         style="fill:none;stroke:#000000;stroke-width:12;stroke-linecap:round;stroke-linejoin:round;stroke-miterlimit:4;stroke-dasharray:none"
         inkscape:connector-curvature="0" />
      <path
         id="path5231"
         d="M 132.58951,-53.623836 165.56577,53.633677"
         style="fill:none;stroke:#000000;stroke-width:12;stroke-linecap:round;stroke-linejoin:round;stroke-miterlimit:4;stroke-dasharray:none"
         inkscape:connector-curvature="0" />
      <path
         sodipodi:nodetypes="cc"
         id="path5233"
         d="m 135.79554,-54.616961 110.17138,24.275065"
         style="fill:none;stroke:#000000;stroke-width:12;stroke-linecap:round;stroke-linejoin:round;stroke-miterlimit:4;stroke-dasharray:none"
         inkscape:connector-curvature="0" />
    </g>
    <path
       sodipodi:type="arc"
       style="fill:#ffffff;fill-opacity:1;stroke:#000000;stroke-width:8;stroke-linecap:round;stroke-linejoin:round;stroke-miterlimit:4;stroke-dasharray:none"
       id="path5117"
       sodipodi:cx="-254.54546"
       sodipodi:cy="206.54546"
       sodipodi:rx="39.272728"
       sodipodi:ry="39.272728"
       d="m -215.27273,206.54546 c 0,21.68972 -17.583,39.27272 -39.27273,39.27272 -21.68972,0 -39.27272,-17.583 -39.27272,-39.27272 0,-21.68973 17.583,-39.27273 39.27272,-39.27273 21.68973,0 39.27273,17.583 39.27273,39.27273 z"
       transform="translate(407.27156,-186.90733)" />
    <path
       sodipodi:nodetypes="ccccscc"
       style="fill:#156c15;fill-opacity:0.65596331;stroke:#000000;stroke-width:1px;stroke-linecap:round;stroke-linejoin:round;stroke-opacity:1"
       d="m 123.27154,-1.089158 c -6.75962,-0.456585 -8.06128,4.544784 -10.18182,8.7272704 -3.19512,7.0521066 -0.24658,11.0323826 2.18182,15.2727296 4.24416,1.080514 4.34405,4.71135 20.36363,-1.45455 4.21761,-5.596619 9.62743,-16.0443376 2.90909,-18.18182 -7.5191,-2.39224999 -12.07884,1.8334754 -15.27272,-4.36363 l 0,0"
       id="path5209"
       inkscape:connector-curvature="0" />
    <path
       sodipodi:nodetypes="ccccscc"
       style="fill:#156c15;fill-opacity:0.65596331;stroke:#000000;stroke-width:1px;stroke-linecap:round;stroke-linejoin:round;stroke-opacity:1"
       d="m 168.72609,-5.8164308 c -6.75962,-0.456585 -8.06128,4.544784 -10.18182,8.72727 -3.19512,7.052107 -0.24658,11.0323828 2.18182,15.2727298 4.24416,1.080514 4.34405,4.71135 20.36363,-1.45455 4.21761,-5.596619 9.62743,-16.04433779 2.90909,-18.1818198 -7.5191,-2.39225 -12.07884,1.83347501 -15.27272,-4.36363 l 0,0"
       id="path5211"
       inkscape:connector-curvature="0" />
    <path
       transform="translate(407.27156,-186.90733)"
       d="m -215.27273,206.54546 c 0,21.68972 -17.583,39.27272 -39.27273,39.27272 -21.68972,0 -39.27272,-17.583 -39.27272,-39.27272 0,-21.68973 17.583,-39.27273 39.27272,-39.27273 21.68973,0 39.27273,17.583 39.27273,39.27273 z"
       sodipodi:ry="39.272728"
       sodipodi:rx="39.272728"
       sodipodi:cy="206.54546"
       sodipodi:cx="-254.54546"
       id="path5105"
       style="fill:url(#radialGradient5147);fill-opacity:1;stroke:#000000;stroke-width:8;stroke-linecap:round;stroke-linejoin:round;stroke-miterlimit:4;stroke-dasharray:none"
       sodipodi:type="arc" />
    <path
       inkscape:connector-curvature="0"
       id="path5151"
       d="m 160.72609,26.18357 c -6.75962,-0.456585 -8.06128,4.544784 -10.18182,8.72727 -3.19512,7.052107 -0.24658,11.032383 2.18182,15.27273 4.24416,1.080514 4.34405,4.71135 20.36363,-1.45455 4.21761,-5.596619 9.62743,-16.044338 2.90909,-18.18182 -7.5191,-2.39225 -12.07884,1.833475 -15.27272,-4.36363 l 0,0"
       style="fill:#156c15;stroke:#000000;stroke-width:1px;stroke-linecap:round;stroke-linejoin:round;stroke-opacity:1;fill-opacity:0.6559633"
       sodipodi:nodetypes="ccccscc" />
  </g>
  <metadata
     id="metadata3209">
    <rdf:RDF>
      <cc:Work>
        <dc:format>image/svg+xml</dc:format>
        <dc:type
           rdf:resource="http://purl.org/dc/dcmitype/StillImage" />
        <cc:license
           rdf:resource="http://creativecommons.org/licenses/publicdomain/" />
        <dc:publisher>
          <cc:Agent
             rdf:about="http://openclipart.org/">
            <dc:title>Openclipart</dc:title>
          </cc:Agent>
        </dc:publisher>
        <dc:title>Spider Web Icon 2</dc:title>
        <dc:date>2010-09-18T08:43:38</dc:date>
        <dc:description />
        <dc:source>https://openclipart.org/detail/85333/spider-web-icon-2-by-netalloy</dc:source>
        <dc:creator>
          <cc:Agent>
            <dc:title>netalloy</dc:title>
          </cc:Agent>
        </dc:creator>
        <dc:subject>
          <rdf:Bag>
            <rdf:li>Halloween2010</rdf:li>
            <rdf:li>Spider web</rdf:li>
          </rdf:Bag>
        </dc:subject>
      </cc:Work>
      <cc:License
         rdf:about="http://creativecommons.org/licenses/publicdomain/">
        <cc:permits
           rdf:resource="http://creativecommons.org/ns#Reproduction" />
        <cc:permits
           rdf:resource="http://creativecommons.org/ns#Distribution" />
        <cc:permits
           rdf:resource="http://creativecommons.org/ns#DerivativeWorks" />
      </cc:License>
    </rdf:RDF>
  </metadata>
</svg>
